<svg id="sw-js-blob-svg" viewBox="0 0 100 100" xmlns="http://www.w3.org/2000/svg">
  <defs>
    <linearGradient id="sw-gradient" x1="0" x2="1" y1="1" y2="0">
      <stop id="stop1" stop-color="rgba(166.375, 55, 248, 1)" offset="0%"></stop>
      <stop id="stop2" stop-color="rgba(14.669, 0, 223.95, 1)" offset="100%"></stop>
    </linearGradient>
  </defs>
  <path fill="url(#sw-gradient)"
        d="M25.5,-29C32.9,-24.1,38.7,-16,40.4,-7C42.1,1.9,39.7,11.7,34,17.8C28.3,23.9,19.4,26.2,11,28.6C2.6,31,-5.2,33.5,-12.8,32.1C-20.3,30.6,-27.6,25.4,-30.3,18.5C-33.1,11.7,-31.4,3.2,-29.2,-4.5C-27.1,-12.2,-24.4,-19.1,-19.5,-24.4C-14.5,-29.7,-7.3,-33.4,0.9,-34.4C9,-35.5,18,-33.9,25.5,-29Z"
        width="100%" height="100%" transform="translate(50 50)" stroke-width="0" style="transition: all 0.3s ease 0s;">
    <animate attributeName="d" attributeType="XML"
             dur="5s" repeatCount="indefinite"
             values="
               M25.5,-29C32.9,-24.1,38.7,-16,40.4,-7C42.1,1.9,39.7,11.7,34,17.8C28.3,23.9,19.4,26.2,11,28.6C2.6,31,-5.2,33.5,-12.8,32.1C-20.3,30.6,-27.6,25.4,-30.3,18.5C-33.1,11.7,-31.4,3.2,-29.2,-4.5C-27.1,-12.2,-24.4,-19.1,-19.5,-24.4C-14.5,-29.7,-7.3,-33.4,0.9,-34.4C9,-35.5,18,-33.9,25.5,-29Z;
               M25.5,-29C32.9,-24.1,38.7,-16,40.4,-7C42.1,1.9,39.7,11.7,34,17.8C28.3,23.9,19.4,26.2,11,28.6C2.6,31,-5.2,33.5,-12.8,32.1C-20.3,30.6,-27.6,25.4,-30.3,18.5C-33.1,11.7,-31.4,3.2,-29.2,-4.5C-27.1,-12.2,-24.4,-19.1,-19.5,-24.4C-14.5,-29.7,-7.3,-33.4,0.9,-34.4C9,-35.5,18,-33.9,25.5,-29Z;
               M25.5,-29C32.9,-24.1,38.7,-16,40.4,-7C42.1,1.9,39.7,11.7,34,17.8C28.3,23.9,19.4,26.2,11,28.6C2.6,31,-5.2,33.5,-12.8,32.1C-20.3,30.6,-27.6,25.4,-30.3,18.5C-33.1,11.7,-31.4,3.2,-29.2,-4.5C-27.1,-12.2,-24.4,-19.1,-19.5,-24.4C-14.5,-29.7,-7.3,-33.4,0.9,-34.4C9,-35.5,18,-33.9,25.5,-29Z;
               M25.5,-29C32.9,-24.1,38.7,-16,40.4,-7C42.1,1.9,39.7,11.7,34,17.8C28.3,23.9,19.4,26.2,11,28.6C2.6,31,-5.2,33.5,-12.8,32.1C-20.3,30.6,-27.6,25.4,-30.3,18.5C-33.1,11.7,-31.4,3.2,-29.2,-4.5C-27.1,-12.2,-24.4,-19.1,-19.5,-24.4C-14.5,-29.7,-7.3,-33.4,0.9,-34.4C9,-35.5,18,-33.9,25.5,-29Z;
               M25.5,-29C32.9,-24.1,38.7,-16,40.4,-7C42.1,1.9,39.7,11.7,34,17.8C28.3,23.9,19.4,26.2,11,28.6C2.6,31,-5.2,33.5,-12.8,32.1C-20.3,30.6,-27.6,25.4,-30.3,18.5C-33.1,11.7,-31.4,3.2,-29.2,-4.5C-27.1,-12.2,-24.4,-19.1,-19.5,-24.4C-14.5,-29.7,-7.3,-33.4,0.9,-34.4C9,-35.5,18,-33.9,25.5,-29Z"/>
  </path>
</svg>
